<svg  width="115" height="54" viewBox="0 0 701 332" version="1.1" xmlns="http://www.w3.org/2000/svg" xmlns:xlink="http://www.w3.org/1999/xlink" xml:space="preserve" xmlns:serif="http://www.serif.com/" style="fill-rule:evenodd;clip-rule:evenodd;stroke-linejoin:round;stroke-miterlimit:2;">
    <g transform="matrix(1,0,0,1,-96.1881,-136.468)">
        <rect x="96.188" y="136.468" width="700.635" height="331.639" style="fill:none;"/>
        <g transform="matrix(18.3067,0,0,18.3067,-4529.14,-4067.11)">
            <g transform="matrix(12,0,0,12,254.765,241.677)">
                <path d="M0.088,-0L0.088,-0.389L0.02,-0.389L0.02,-0.496L0.088,-0.496L0.088,-0.554C0.088,-0.614 0.103,-0.657 0.134,-0.682C0.164,-0.707 0.205,-0.72 0.257,-0.72L0.312,-0.72L0.312,-0.611L0.277,-0.611C0.255,-0.611 0.239,-0.607 0.23,-0.598C0.221,-0.589 0.216,-0.575 0.216,-0.554L0.216,-0.496L0.323,-0.496L0.323,-0.389L0.216,-0.389L0.216,-0L0.088,-0Z" style="fill:rgb(15,33,55);fill-rule:nonzero;"/>
            </g>
            <g transform="matrix(12,0,0,12,259.073,241.677)">
                <path d="M0.065,-0L0.065,-0.496L0.179,-0.496L0.191,-0.403C0.209,-0.435 0.234,-0.461 0.265,-0.48C0.296,-0.499 0.332,-0.508 0.374,-0.508L0.374,-0.373L0.338,-0.373C0.31,-0.373 0.285,-0.369 0.263,-0.36C0.241,-0.351 0.224,-0.336 0.212,-0.315C0.199,-0.294 0.193,-0.264 0.193,-0.226L0.193,-0L0.065,-0Z" style="fill:rgb(15,33,55);fill-rule:nonzero;"/>
            </g>
            <g transform="matrix(12,0,0,12,263.717,241.677)">
                <path d="M0.306,0.012C0.256,0.012 0.212,0.001 0.173,-0.02C0.134,-0.041 0.104,-0.071 0.082,-0.11C0.06,-0.149 0.049,-0.193 0.049,-0.244C0.049,-0.295 0.06,-0.341 0.082,-0.381C0.103,-0.421 0.133,-0.452 0.172,-0.474C0.21,-0.497 0.255,-0.508 0.307,-0.508C0.356,-0.508 0.399,-0.497 0.436,-0.476C0.473,-0.455 0.502,-0.426 0.524,-0.389C0.545,-0.352 0.555,-0.31 0.555,-0.265C0.555,-0.258 0.555,-0.25 0.555,-0.242C0.554,-0.234 0.554,-0.226 0.553,-0.217L0.176,-0.217C0.179,-0.178 0.192,-0.148 0.217,-0.126C0.241,-0.104 0.27,-0.093 0.305,-0.093C0.331,-0.093 0.353,-0.099 0.371,-0.111C0.388,-0.122 0.401,-0.137 0.41,-0.156L0.54,-0.156C0.531,-0.125 0.515,-0.096 0.494,-0.07C0.472,-0.045 0.445,-0.025 0.413,-0.01C0.382,0.005 0.346,0.012 0.306,0.012ZM0.307,-0.404C0.276,-0.404 0.248,-0.395 0.224,-0.378C0.2,-0.36 0.185,-0.333 0.178,-0.297L0.425,-0.297C0.423,-0.33 0.411,-0.356 0.389,-0.375C0.367,-0.394 0.34,-0.404 0.307,-0.404Z" style="fill:rgb(15,33,55);fill-rule:nonzero;"/>
            </g>
            <g transform="matrix(12,0,0,12,270.893,241.677)">
                <path d="M0.459,0.22L0.459,-0.071C0.443,-0.049 0.422,-0.03 0.396,-0.013C0.369,0.004 0.335,0.012 0.293,0.012C0.246,0.012 0.205,0.001 0.168,-0.022C0.131,-0.045 0.102,-0.076 0.081,-0.115C0.06,-0.154 0.049,-0.199 0.049,-0.249C0.049,-0.299 0.06,-0.344 0.081,-0.383C0.102,-0.422 0.131,-0.452 0.168,-0.474C0.205,-0.497 0.246,-0.508 0.293,-0.508C0.33,-0.508 0.363,-0.501 0.391,-0.487C0.419,-0.473 0.442,-0.453 0.459,-0.428L0.473,-0.496L0.587,-0.496L0.587,0.22L0.459,0.22ZM0.32,-0.1C0.361,-0.1 0.395,-0.114 0.422,-0.141C0.448,-0.169 0.461,-0.205 0.461,-0.248C0.461,-0.291 0.448,-0.327 0.422,-0.355C0.395,-0.382 0.361,-0.396 0.32,-0.396C0.279,-0.396 0.246,-0.382 0.219,-0.355C0.192,-0.328 0.179,-0.292 0.179,-0.249C0.179,-0.206 0.192,-0.17 0.219,-0.142C0.246,-0.114 0.279,-0.1 0.32,-0.1Z" style="fill:rgb(15,33,55);fill-rule:nonzero;"/>
            </g>
            <g transform="matrix(12,0,0,12,278.717,241.677)">
                <path d="M0.134,-0.573C0.111,-0.573 0.092,-0.58 0.077,-0.594C0.062,-0.608 0.054,-0.626 0.054,-0.647C0.054,-0.668 0.062,-0.686 0.077,-0.7C0.092,-0.713 0.111,-0.72 0.134,-0.72C0.157,-0.72 0.177,-0.713 0.192,-0.7C0.206,-0.686 0.214,-0.668 0.214,-0.647C0.214,-0.626 0.206,-0.608 0.192,-0.594C0.177,-0.58 0.157,-0.573 0.134,-0.573ZM0.07,-0L0.07,-0.496L0.198,-0.496L0.198,-0L0.07,-0Z" style="fill:rgb(15,33,55);fill-rule:nonzero;"/>
            </g>
            <g transform="matrix(12,0,0,12,281.921,241.677)">
                <path d="M0.306,0.012C0.256,0.012 0.212,0.001 0.173,-0.02C0.134,-0.041 0.104,-0.071 0.082,-0.11C0.06,-0.149 0.049,-0.193 0.049,-0.244C0.049,-0.295 0.06,-0.341 0.082,-0.381C0.103,-0.421 0.133,-0.452 0.172,-0.474C0.21,-0.497 0.255,-0.508 0.307,-0.508C0.356,-0.508 0.399,-0.497 0.436,-0.476C0.473,-0.455 0.502,-0.426 0.524,-0.389C0.545,-0.352 0.555,-0.31 0.555,-0.265C0.555,-0.258 0.555,-0.25 0.555,-0.242C0.554,-0.234 0.554,-0.226 0.553,-0.217L0.176,-0.217C0.179,-0.178 0.192,-0.148 0.217,-0.126C0.241,-0.104 0.27,-0.093 0.305,-0.093C0.331,-0.093 0.353,-0.099 0.371,-0.111C0.388,-0.122 0.401,-0.137 0.41,-0.156L0.54,-0.156C0.531,-0.125 0.515,-0.096 0.494,-0.07C0.472,-0.045 0.445,-0.025 0.413,-0.01C0.382,0.005 0.346,0.012 0.306,0.012ZM0.307,-0.404C0.276,-0.404 0.248,-0.395 0.224,-0.378C0.2,-0.36 0.185,-0.333 0.178,-0.297L0.425,-0.297C0.423,-0.33 0.411,-0.356 0.389,-0.375C0.367,-0.394 0.34,-0.404 0.307,-0.404Z" style="fill:rgb(15,33,55);fill-rule:nonzero;"/>
            </g>
        </g>
    </g>
</svg>
